<?xml version="1.0" encoding="UTF-8"?>
<svg id="Livello_7" xmlns="http://www.w3.org/2000/svg" xmlns:xlink="http://www.w3.org/1999/xlink" viewBox="0 0 400 400">
  <defs>
    <style>
      .cls-1, .cls-2, .cls-3, .cls-4 {
        stroke-linecap: round;
        stroke-linejoin: round;
      }

      .cls-1, .cls-2, .cls-4 {
        stroke: #fff;
        stroke-width: 1.001px;
      }

      .cls-1, .cls-5 {
        fill: #666;
      }

      .cls-6 {
        fill: #ed1b2f;
      }

      .cls-2 {
        fill: #999;
      }

      .cls-3 {
        stroke-width: 4.252px;
      }

      .cls-3, .cls-7, .cls-4, .cls-8 {
        fill: #fff;
      }

      .cls-3, .cls-9 {
        stroke: #003348;
      }

      .cls-10 {
        fill: #00ae9d;
      }

      .cls-8 {
        fill-rule: evenodd;
      }

      .cls-11 {
        fill: #009bdb;
      }

      .cls-12, .cls-9 {
        fill: none;
      }

      .cls-9 {
        stroke-miterlimit: 10;
        stroke-width: 5.669px;
      }

      .cls-13 {
        fill: #fee103;
      }

      .cls-14 {
        fill: #003247;
      }

      .cls-15 {
        fill: #fbab18;
      }

      .cls-16 {
        clip-path: url(#clippath);
      }
    </style>
    <clipPath id="clippath">
      <path class="cls-12" d="M198.982,43.151c-86.1,0-155.9,69.8-155.9,155.9s69.8,155.91,155.9,155.91,155.91-69.8,155.91-155.91S285.093,43.151,198.982,43.151ZM87.653,190.621c4.42-32.41,23.94-62.63,52.24-79.26,33.09-20.35,77.08-20.99,110.67-1.46,10.63,5.84,20.1,13.58,28.08,22.64,4.9,5.56,9.24,11.62,12.95,18.05,5.96,10.35,10.28,21.65,12.64,33.35-14.04,17.27-45.46,34.11-60.56,41.18-21.97,10.2-45.23,18.08-68.92,23.38-23.81,5-56,9.4-78.71,1.21-.01-.01-.01-.03-.02-.04-1.46-3.28-2.75-6.63-3.88-10.03-.53-1.58-1.01-3.17-1.46-4.78-.93-3.28-1.69-6.61-2.29-9.97-.06-.35-.12-.7-.18-1.05-.74-4.4-1.2-8.85-1.36-13.32v-.1l-.03-.96c-.03-.63-.06-1.26-.07-1.89-.07-2.08-.07-4.16,0-6.24.11-3.59.41-7.16.9-10.71Z"/>
    </clipPath>
  </defs>
  <g id="Colore">
    <g id="SPARKLE_ESA">
      <ellipse class="cls-3" cx="200" cy="200" rx="184.403" ry="184.328" transform="translate(-.335 399.664) rotate(-89.904)"/>
      <path class="cls-14" d="M273.078,51.438l19.774,11.5c.046.027.058.054.035.093l-1.922,3.309c-.028.047-.063.055-.11.027l-19.769-11.5c-.047-.023-.055-.058-.027-.105l1.921-3.309c.032-.031.063-.035.098-.015ZM276.211,46.046l19.773,11.5c.039.035.051.07.028.106l-1.75,3.011c-.028.047-.063.055-.106.032l-19.773-11.5c-.043-.028-.055-.063-.028-.11l1.75-3.012c.036-.039.071-.046.106-.027ZM279.512,40.371l19.769,11.5c.039.035.051.071.031.106l-1.925,3.312c-.028.043-.063.055-.106.028l-19.773-11.5c-.043-.028-.055-.063-.028-.106l1.922-3.312c.035-.039.071-.047.11-.028ZM250.344,28.906l4.886,1.786c.043.027.059.062.047.101l-4.371,11.949,16.524,6.043c.047.02.066.047.05.086l-1.316,3.594c-.016.051-.051.066-.098.047l-21.48-7.859c-.047-.016-.063-.051-.047-.098l5.703-15.602c.027-.047.063-.062.102-.047ZM219.672,22.731l5.121.906c.051.019.07.051.062.09l-1.16,6.574,11.434-4.836,7.094,1.25-.008.047c-.504.269-3.727,1.644-9.672,4.117l-.008.031,6.785,12.243-.008.046-6.75-1.191c-.062-.066-1.73-3.055-5.003-8.965l-4.692,1.949-.898,5.094c-.008.055-.039.074-.09.067l-5.121-.907c-.055-.008-.074-.039-.067-.09l2.891-16.359c.016-.051.047-.07.09-.066ZM193.629,25.996l.004,4.192,10.168-.012c1.086-.004,1.773-.477,2.062-1.426.039-.219.063-.433.063-.64-.004-1.012-.426-1.68-1.27-2.016-.258-.07-.523-.106-.797-.106l-10.23.008ZM188.344,22.02l17.652-.02c1.606-.004,3.004.61,4.203,1.84.731.844,1.098,1.754,1.098,2.734l.004,3.032c0,1.574-.864,2.875-2.59,3.91l-.672.297,3.27,4.918-.079.031-6.339.008c-.157-.176-1.196-1.711-3.114-4.606l-8.14.008.004,4.531c0,.051-.024.078-.079.078l-5.199.008c-.054,0-.078-.027-.078-.078l-.019-16.613c.011-.051.035-.078.078-.078ZM164.832,25.492l5.238-.972c.117.07,1.532,1.668,4.242,4.789,5.469,6.285,8.317,9.57,8.551,9.855l.004.032-6.051,1.125c-.168-.118-2.621-2.915-7.355-8.395-.578-.652-.879-.98-.899-.977-2.769,7.625-4.195,11.528-4.277,11.7l-6.082,1.132-.016-.078c4.262-11.738,6.477-17.808,6.645-18.211ZM131.93,39.738l1.5,3.915,9.492-3.645c1.012-.391,1.484-1.078,1.418-2.066-.039-.219-.098-.426-.172-.621-.359-.946-.996-1.422-1.902-1.43-.27.023-.532.086-.782.183l-9.554,3.664ZM125.574,37.91l16.449-6.312c1.711-.656,3.407-.504,5.082.461.75.558,1.25,1.172,1.504,1.832l1.114,2.902c.543,1.414.238,2.895-.903,4.449-.695.782-1.465,1.332-2.312,1.657l-11.653,4.472,1.622,4.231c.019.051.003.082-.043.101l-4.86,1.864c-.047.019-.082.004-.097-.043l-5.95-15.512c-.008-.051.008-.086.047-.102ZM102.758,50.793l15.183-9.152c.051-.02.086-.012.11.023l1.972,3.282c.028.042.02.082-.023.105l-13.902,8.383c-.719.566-.879,1.172-.489,1.824.262.438.7.625,1.305.563.18-.024.371-.094.566-.211l9.446-5.696c1.332-.801,2.824-.984,4.484-.551,1.059.348,1.836.93,2.332,1.754l.598.989c.844,1.402.711,3.027-.403,4.879-.496.711-1.097,1.281-1.812,1.711l-15.121,9.113c-.043.027-.078.019-.106-.024l-1.976-3.281c-.012-.039,0-.074.035-.094l13.836-8.339c.562-.34.801-.825.711-1.454-.094-.234-.149-.371-.172-.406-.27-.445-.703-.64-1.301-.582-.179.024-.371.094-.578.219l-9.312,5.613c-1.536.926-3.18,1.102-4.934.531-.883-.355-1.543-.894-1.977-1.617l-.597-.992c-.789-1.312-.715-2.836.222-4.566.598-.887,1.231-1.559,1.903-2.024Z"/>
      <path class="cls-14" d="M347.445,265.093l5.992-16.731c.536-1.488,1.668-2.609,3.399-3.363.969-.269,1.832-.269,2.586,0l11.472,4.113c.047.02.063.051.047.102l-1.761,4.914c-.016.047-.051.063-.098.047l-9.133-3.277c-1.394-.5-2.515-.227-3.363.82-.172.258-.301.508-.383.742l-3.226,9.004,11.953,4.289c.05.016.066.051.05.098l-1.757,4.898c-.016.051-.051.067-.098.047l-15.633-5.605c-.047-.028-.062-.059-.047-.102v.004ZM336.035,286.468l10.856-20.137c.035-.043.07-.054.105-.031l3.371,1.816c.047.024.055.059.031.106l-4.144,7.687,11.176,6.036c.047.023.058.058.031.105l-2.477,4.594c-.023.043-.058.054-.105.031l-11.18-6.031-4.16,7.715c-.023.046-.059.054-.105.031l-3.368-1.817c-.043-.035-.05-.07-.031-.105ZM331.488,292.574l2.926-4.304c.035-.035.074-.043.109-.02l13.735,9.336c.043.027.051.063.019.106l-2.922,4.308c-.031.043-.066.047-.109.02l-13.734-9.336c-.039-.039-.047-.074-.024-.11ZM315.699,312.261l11.426-13.602c1.019-1.214,2.469-1.871,4.352-1.976,1.007.082,1.816.383,2.429.898l9.328,7.844c.043.031.043.07.012.109l-3.355,3.996c-.036.04-.071.043-.114.008l-7.425-6.242c-1.133-.953-2.278-1.086-3.438-.398-.25.183-.457.371-.617.562l-6.153,7.32,9.727,8.176c.039.031.043.071.008.11l-3.348,3.984c-.031.039-.07.043-.109.012l-12.711-10.688c-.035-.043-.039-.078-.012-.113ZM297.582,328.347l3.902-3.438c.047-.027.086-.027.114.004l6.418,7.301c.968,1.102,2.082,1.398,3.339.887.274-.129.504-.278.692-.442l7.18-6.316-8.399-9.551c-.027-.047-.027-.086.004-.113l3.918-3.445c.047-.028.082-.028.113.003l10.969,12.473c.031.039.031.078-.008.113l-13.406,11.797c-1.141,1.004-2.582,1.426-4.32,1.262-1.051-.168-1.883-.602-2.496-1.297l-8.028-9.129c-.027-.047-.023-.086.008-.113v.004ZM273.918,350.062l11.398-6.184c.047-.027.082-.019.102.016l1.824,3.367c.024.047.012.082-.031.105l-11.399,6.184c-.046.023-.082.016-.105-.031l-1.828-3.367c-.008-.04.004-.071.039-.09ZM232.16,358.027l5.086-1.422,7.754,4.765c2.672-5.265,4.051-7.961,4.133-8.082l5.086-1.422c.054-.004.086.016.097.055-.332.59-2.312,4.465-5.937,11.621l1.883,6.758c.015.051-.004.082-.055.098l-5.023,1.402c-.051.016-.082-.004-.098-.055l-1.883-6.758-11.105-6.894.062-.066ZM206.141,361.23l5.32-.618,8.066,7.418c4.059-6.043,6.098-9.066,6.117-9.066l5.34-.621c.043.004.067.027.071.07l1.918,16.5c.004.051-.012.082-.055.086l-5.184.602c-.05.008-.078-.016-.086-.067l-1.14-9.828-6.149,9.086-.078.008c-.043-.004-2.746-2.48-8.113-7.426l1.144,9.828c.004.051-.015.078-.07.086l-5.168.602c-.051.004-.078-.02-.086-.07l-1.918-16.5c.004-.055.028-.083.071-.09ZM181.531,373.058l22.856.926c.05.003.074.023.074.066l-.156,3.824c0,.055-.028.078-.082.074l-22.852-.925c-.051,0-.074-.028-.074-.082l.156-3.825c.012-.043.039-.062.078-.058ZM181.785,366.827l22.852.926c.05.012.078.039.074.082l-.141,3.481c0,.054-.027.078-.082.074l-22.851-.926c-.051,0-.075-.027-.075-.082l.141-3.48c.016-.051.039-.079.082-.075ZM182.051,360.269l22.851.926c.051.011.078.039.075.082l-.153,3.824c-.004.054-.031.078-.082.074l-22.851-.926c-.051,0-.079-.027-.075-.082l.153-3.824c.015-.051.043-.078.082-.074ZM162.68,360.683l-1.676,8.656,9.433,1.824c1.188.231,2.153-.238,2.895-1.398.121-.242.207-.492.258-.746l.64-3.317c.235-1.207-.203-2.172-1.304-2.89-.235-.145-.524-.246-.86-.313l-9.386-1.816ZM158.25,355.769l17.332,3.351c1.562.305,2.824,1.172,3.777,2.61.555.965.739,1.929.555,2.89l-1.461,7.551c-.269,1.402-1.266,2.457-2.98,3.164-1.098.352-2.098.438-2.996.266l-17.411-3.367c-.05-.012-.07-.039-.058-.094l3.152-16.309c.02-.051.047-.07.09-.062ZM142.785,350.363l5.008,1.813c.066.121.48,2.215,1.238,6.277,1.535,8.192,2.328,12.469,2.387,12.832l-.012.028-5.785-2.094c-.09-.188-.789-3.84-2.102-10.965-.164-.855-.257-1.289-.277-1.297-6.246,5.176-9.449,7.817-9.609,7.926l-5.817-2.105.024-.075c9.613-7.965,14.597-12.078,14.945-12.34ZM116.961,337.898l15.535,8.55c.039.036.051.071.027.106l-1.843,3.355c-.024.047-.059.055-.106.032l-13.015-7.168c-1.176-.649-2.317-.434-3.418.636-.153.211-.262.383-.332.512l-1.567,2.848c-.594,1.074-.473,2.129.363,3.16.168.211.403.402.704.566l13.015,7.168c.047.024.059.055.039.09l-1.844,3.356c-.027.046-.062.054-.109.031l-15.437-8.5c-1.594-.879-2.567-2.258-2.911-4.137-.097-.91.047-1.711.43-2.402l3.766-6.848c.66-1.195,1.914-1.871,3.773-2.027,1.149.004,2.129.226,2.93.672ZM99.402,325.519l4.211,3.265c.024.137-.226,2.254-.754,6.356-1.054,8.265-1.609,12.578-1.668,12.941l-.015.028-4.867-3.774c-.028-.203.429-3.898,1.367-11.078.105-.867.152-1.309.133-1.32-7.532,3.004-11.391,4.535-11.575,4.586l-4.89-3.789.047-.063c11.593-4.629,17.597-7.012,18.011-7.152ZM70.246,295.035l3.219,4.246c-.012.141-.805,2.122-2.379,5.942-3.164,7.707-4.824,11.726-4.973,12.062l-.027.02-3.715-4.906c.027-.203,1.426-3.653,4.199-10.344.328-.809.485-1.223.473-1.238-8.055.941-12.18,1.414-12.371,1.418l-3.738-4.934.062-.047c12.398-1.453,18.816-2.191,19.25-2.223v.004ZM55.359,270.52l8.383,15.629c.016.05.004.086-.035.105l-3.371,1.813c-.047.023-.082.011-.106-.032l-7.671-14.308c-.532-.746-1.129-.938-1.801-.578-.449.238-.656.664-.625,1.273.011.184.074.375.183.578l5.215,9.723c.731,1.367.84,2.871.324,4.508-.398,1.039-1.019,1.789-1.867,2.242l-1.015.547c-1.442.773-3.059.558-4.852-.645-.684-.531-1.223-1.164-1.617-1.898l-8.344-15.563c-.027-.047-.016-.082.031-.105l3.371-1.809c.043-.012.075,0,.094.039l7.633,14.239c.313.578.781.839,1.414.785.242-.082.379-.133.414-.153.461-.246.676-.668.649-1.269-.012-.18-.079-.379-.192-.59l-5.137-9.586c-.847-1.578-.941-3.23-.281-4.953.399-.867.969-1.496,1.711-1.895l1.02-.546c1.347-.727,2.867-.575,4.55.449.852.64,1.493,1.308,1.922,2ZM32.66,247.484l7.668,21.554c.016.051.004.082-.035.094l-3.606,1.285c-.046.016-.082,0-.097-.047l-7.668-21.554c-.02-.051-.004-.086.047-.102l3.605-1.285c.043-.004.07.016.086.055ZM38.531,245.395l7.668,21.554c.008.051-.008.086-.047.098l-3.281,1.168c-.051.02-.082.004-.102-.047l-7.667-21.555c-.016-.046,0-.082.046-.097l3.286-1.172c.05-.004.082.012.097.051ZM44.711,243.192l7.668,21.554c.008.055-.008.086-.047.102l-3.605,1.285c-.047.016-.083,0-.098-.051l-7.668-21.554c-.02-.047-.004-.082.047-.098l3.605-1.285c.051-.008.086.008.098.047Z"/>
    </g>
    <circle class="cls-14" cx="198.985" cy="199.054" r="155.906" transform="translate(-82.471 199.005) rotate(-45)"/>
    <g id="Terra">
      <g id="Earth_Wiki_rounded">
        <g id="path2648">
          <path class="cls-11" d="M306.318,205.432c.343-38.789-21.742-76.841-55.758-95.534-33.587-19.526-77.582-18.892-110.663,1.464-33.749,19.828-54.992,58.96-53.074,98.096.982,39.54,25.482,77.475,61.249,94.435,34.403,17.505,78.034,14.467,109.809-7.442,29.998-19.836,48.658-55.058,48.438-91.019Z"/>
        </g>
        <g>
          <path id="Groenlandia" class="cls-7" d="M174.6,142.824c-.788-.042-1.365.483-2.055.677-.452-.003-1.265-.108-1.627.62-.409.917-.578,2.062-1.089,2.986-1.267,2.508-4.059,3.776-6.073,5.248-.384.557-.311,1.694-1.211,2.209-.144.097-.285.119-.447.148-.686-.099-1.78,1.307-2.763,2.209-.755.642-1.828.44-2.544.195-.124.033-.246.484-.61.5-.383.028-1.098-.027-1.544.228-.485.101-.166.634-.469.871-.186.129-.697.35-1.021.523-.392.328-.719.696-1.197,1.008-.614.259-.349,1.043-.813,1.401-1.847.493-2.781,2.478-3.888,3.899-.871,1.189-.124,3.274-.633,4.476-.309,1.285.698,1.305,1.678.817,1.264-.426,2.946-1.742,4.217-1.748,1.105-.084,1.849-.876,2.951-1.099,1.525-.468,2.545.091,3.809.589,1.018.263,2.314.17,3.407.218,1.793.01,3.434.684,5.25.862,1.054.033,1.873-.012,2.303-.649.439-.747-.41-1.537.171-1.87.35-.24.874-.155,1.15.109.353.362.706.987,1.09.901.189-.025.422-.295.605-.624.5-.814.728-1.568,1.616-2.072,1.068-.598,2.448-1.158,3.413-2.055,2.311-2.201,5.021-6.288,7.63-8.325.642-.497,1.749-.751,1.785-1.681.04-.626-.403-1.298-.455-1.886-.04-.998.111-2.461-.267-3.231-.058-.353-.965-.851-1.462-1.1-.843-.386-1.452-1.11-2.251-1.707-1.953-1.605-3.307-1.735-5.65-2.165-.92-.28-1.925-.502-2.878-.482h-.129Z"/>
          <path id="America" class="cls-7" d="M197.966,102.327c-2.139.232-5.881,3.173-7.586,3.127-1.204.113-2.552.424-3.803.714-3.94.754-7.958,1.019-11.632,1.517-5.908.194-11.954-.79-17.977,1.179-2.557.604-3.621-.625-6.834-.409-5.231.297-9.375,2.743-14.408,5.803-3.794,2.401-7.418,4.949-8.656,6.019.05-.028.391-.207.388-.178-1.068,1.093-3.455,2.939-4.801,4.204-6.583,5.763-12.65,12.914-17.551,20.21-.456.699-.477.826-.088.473.261-.231.679-.654,1.144-1.1,4.359-4.359.92,2.543-.507,6.292-1.309,3.544-3.836,8.456-5.341,11.402-.339.814-.635,1.255-.262,1.32.612-.046,3.611-1.485,5.186-1.236,1.762.345,1.808,1.651,3.511-.037.78-.655,1.177-.978,1.549-.984.746.319,1.27,1.385,2.058,1.987,1.306.815,2.801,1.532,4.112,2.376.997.647,2.201,1.451,2.299,2.692.093.785.032,1.725.265,2.446.389.63,2.978-1.621,3.944-4.138.574-1.119.543-5.254,2.144-2.771,1.431,1.724,3.407,5.795,5.923,6.864,1.928.342,2.691-2.676,3.352-3.571,1.724-2.287,2.701-4.407,5.169-6.439.714-.697,1.478-1.402,1.714-2.286.364-1.214-.984-2.371-.324-3.598,1.257-2.177,5.539-4.249,4.235-7.181-.639-.822-2.044-.618-3.024-.454-2.622.523-5.514,1.291-8.135,1.437-2.231.038-3.655-.661-1.503-2.728,1.79-1.88,3.884-3.796,5.746-5.669,3.317-3.332,5.908-6.466,10.453-6.184,2.771-.011,3.818,1.123,5.432,2.563,1.176,1.548,2.256,4.525,4.707,3.966,1.508-.507.816-2.535,2.078-3.441,1.045-.764,2.947-1.244,3.649-2.082.171-.195.062-.378-.232-.583-1.507-.956-3.141-1.138-1.378-3.331.712-.934,1.613-1.881,1.887-2.713.533-1.342.966-2.446,2.386-3.157,3.162-1.619,6.997-2.824,10.246-4.358,2.455-1.178,3.846-2.332,6.526-3.195,3.969-1.397,8.44-1.078,12.544-1.557,2.297-.311,3.952-.654,5.074-1.702.992-1.181,2.481-3.676,2.446-4.286-.048-.53-.706-1.405-.501-2.347.055-.442.218-.882.208-1.336-.009-.992-1.104-1.403-1.896-1.776-1.876-.758-2.411-1.805-3.869-1.764l-.066.002Z"/>
          <g id="Europa">
            <path class="cls-8" d="M215.185,157.465c-.242.167-.166,1.042-.509,1.542-.243.41-.636.65-.904.993-.474.617-.561,1.735-.783,2.471-.112.671.48,1.016.659,1.588.1.311.18.569.266.728.091.208.117.143-.068.355-.16.164-.396.433-.279.576.2.22.644.216.773.446.102.183.484.287.713-.003.169-.217.03-.452.042-.642-.028-.322.116-.339-.049-.605-.073-.126.035-.255.031-.383-.211-.533-.052-1.152.021-1.996-.181-1.145.179-1.752.656-3.102.421-.826.339-1.699-.47-1.99l-.099.023Z"/>
            <path class="cls-8" d="M215.247,166.111c-.249-.039-1.519.522-1.147,1,.109.19-.108.481-.069.558.052.094.441-.099.485.117.067.486-.758,2.364.512,2.139.226-.072.409-.299.624-.282.411.01.98,1.03,1.367.852.385-.134,1.637-.758,1.654-.874.018-.071-.111-.133-.333-.23-.606-.325-1.82-.628-2.276-1.141-.206-.271-.488-.643-.59-.953-.123-.348-.02-.774-.139-1.134l-.089-.053Z"/>
            <path class="cls-8" d="M224.763,168.66c-1.836-.115-2.574,1.108-2.561,2.441-.22.708-.913,1.246-1.462,1.74-1.204,1.047-1.67.574-2.424,1.293-.437.546-1.019,1.499-1.375,2.293-.344.694-.614,1.78-1.406,1.533-.447-.239-.995-.746-1.389-1.047-.205-.144-.353-.174-.453-.021-.279.665.347,1.549.475,2.235.412,1.287-.728,2.022-1.247,3.117-.447.863-.485,2.151-1.652,2.32-.629.105-.351.712-.757,1.092-.805.698-2.584-1.571-3.28-2.609-.669-.858-1.252-1.308-.248-1.434,1.16-.107,2.67.179,3.743-.364,1.711-1.037.249-2.831-1.439-3.43-1.609-.636-3.183-.489-4.3-1.101-.374-.281-1.31-.245-1.714-.42-.517-.244-.562-1.092-1.126-1.315-.837-.305-1.378.427-2.052.367-1.023.139-1.827.872-2.708,1.476-.519.38-.93.397-1.433.687-.589.467-1.241,1.489-1.746,2.104-1.584,1.334-2.606,3.384-3.748,5.101-.604,1.175-1.213,1.567-1.943,2.469-.302.393-.059.921-.42,1.021-.511.259-1.328.641-1.82.804-.992.495-1.836,1.011-2.721,1.629-.399.599-.751,1.122.298,1.394.38.181.672.241.382.284-.704.112-2.113.491-1.46,1.428.564.316.219.918-.043,1.787-.315,1.204-.009,2.464,1.786,2.121.961-.13,2.262-1.488,2.61-1.129.417.297.469,1,.632,1.711.188.812.54,1.969.593,3.011.214,4.19,3.467,2.278,4.28-.429.304-1.075.418-2.045.821-2.481.49-.625,1.468-.918,1.477-1.837-.128-1.202-.769-2.586-.765-3.887-.043-1.136.583-2.204,1.352-3.031.925-.882,1.707-1.994,2.103-3.191.302-.876.529-1.587,1.282-1.597,2.039-.016.921,2.491.148,3.512-1.112,1.625-1.54,3.498-.983,4.959.745,3.754,3.64,1.282,6.015,1.193.806-.042,1.163.152,1.159.484-.004.608-.889.859-1.51,1.047-2.167.532-3.447,1.215-3.104,3.388.171,1.683-2.333,1.091-2.679,2.784-.214.611-.361,1.418-.408,2.022-.016,1.052-.411.89-.841,1.601-.536,1.118-1.793.315-2.753.47-1.957.167-3.713,1.12-5.624.493-2.43-.597-3.532-1.146-2.719-3.782.346-1.135,1.208-2.587-.129-2.608-.892.282-1.911,2.736-1.764,4.051.042,1.222.452,1.81.175,2.27-.269.379-.902.365-1.393.373-1.336.07-2.767.561-3.8,1.288-.621.396-1.025.915-1.491,1.482-2.057,1.015-4.35,2.425-6.648,2.488-1.164.226-2.079.74-3.365.572-.43-.031-1.045-.149-1.238.3-.257.779,1.999,2.896,2.153,4.714.09,2.006-.792,5.24-3.397,4.45-1.799-.433-4.5-2.023-6.014-2.242-1.252-.265-1.969,1.219-2.305,2.411-.64,2.323-2.802,4.738-2.402,6.976.32,1.433,2.175,2.764,3.514,3.866,1.118.802,2.457.957,3.873,1,1.494.136,2.893-.123,3.969-1.078,1.383-1.096,1.603-3.13,3.652-4.264,1.69-.721,2.955-1.985,4.368-3.072,1.038-.644,2.609.144,4.242-.074,1.311-.125,2.694-.771,3.793-.393.403.138.735.42,1.006.748,1.008,1.485,2.023,3.549,3.788,4.748,1.735,1.389,3.548,2.774,3.859,4.139.191.584.322,2.077.762,1.766.456-.236.823-2.256,1.659-2.663.221-.205.757-.226.789-.55-1.682-2.02-4.377-3.823-5.823-6.224-.74-1.273-1.745-2.887-.592-3.67,1.618-.48,2.841,2.057,4.057,3.106,1.046,1.32,2.702,1.825,3.69,3.155,1.44,2.352,1.368,5.772,4.228,6.984.313.223,1.064.395,1.123.68-.038.144-.856.625-.902,1.17-.078.753,1.139,1.839,1.777,1.092.374-.65.733-1.41,1.107-1.977.033-.564-.534-1.189-.901-2.219-.276-.717-.112-1.782.585-2.123.262-.134.528-.166.77-.365.517-.514,1.502-1.07,2.564-.728,1.182.617,3.182-.078,3.449-1.664-.009-.52-.252-1.034-.376-1.555-.419-1.241.266-2.894.779-4.169.533-1.594,1.595-4.246,3.368-4.731.487.119,1.411.552,1.919,1.265.383.782.49,1.755,1.678,1.502.882-.062,2.674-.95,1.416-1.829-.427-.289-.859-.578-.568-1.088.196-.377.561-.648.913-.909,1.047-.701,2.512-1.77,3.034-1.491.266.174-.102,1.153-.448,2.026-.649,1.504.396,2.567,1.894,3.026,1.66.562,3.271,1.366,4.921,1.897,1.71.556,3.778.202,5.761.626,1.73.257,3.943,1.072,5.47,0,.528-.388.547-.843-.018-1.46-1.944-1.772-4.942-3.449-5.416-6.214-.146-1.533,1.13-3.211,2.059-4.623,1.763-2.798-.202-4.372-1.343-6.822-.629-1.43.332-2.746,1.539-3.539,2.306-1.753,5.244-1.605,7.156-3.057,1.754-1.927-1.97-1.777-2.909-3.067-.634-.586-1.117-1.484-1.961-1.733-1.116-.137-3.002.964-3.146-.836-.06-.489-.002-1.021-.03-1.515.022-1.136-.842-2.162-1.409-3.599-.388-1.015-.574-2.186-.994-3.217-1.009-3.212-3.15-5.507-4.154-8.637-.363-1.501.277-3.162.221-4.81-.038-1.675-1.111-3.561-2.814-3.649l-.174-.014Z"/>
            <path class="cls-8" d="M166.357,174.258c-.32-.076-.463.313-.865.164-.25-.018-.699.117-.842.186-.152.055.27.496.388.652.588.745.373,1.076-.609.842-.924-.224.021,1.004-.149,1.449-.033.336-.47.552-.455.808.007.163.24.402.543.728.554.609.979,1.372,1.778,1.667,1.359.448,3.573.397,4.822-.373.493-.288.477-.94.605-1.477.101-.596.415-1.404-.09-1.758-.297-.123-.737-.329-1.189-.417-.374-.028-.793.103-1.022.004-.733-.142-.694-.343-1.252-.628-.605-.203-1.489.273-1.467-.076-.036-.504.297-1.398-.129-1.752l-.067-.021Z"/>
            <path class="cls-8" d="M172.729,194.276c-1.52.385-2.225,1.922-2.578,3.232-.187.55-.631,1.319-.107,1.404.534.203-.315,1.039-.087,1.513.363.814,1.612,1.093,1.241,2.237-.027.84-.332,1.301-1.218,1.621-.937.352-1.922,1.039-2.159,2.064-.215.853,1.089,1.058,1.433,1.586.007.04-.022.067-.084.09-.328.095-2.842.546-3.11,1.025-.369.905,1.422.526,2.575.636,1.772-.164,4.433,1.07,5.921.019.479-.727,1.601-2.264.696-3.294-.965-1.159-.554-1.854-.945-3.225-.153-1.308-1.106-3.049-1.504-4.175-.107-.211.495-.543.779-.745.822-.561.85-1.345.135-1.985-.914-.656.78-2.36-.832-2.034l-.154.031Z"/>
            <path class="cls-8" d="M167.001,199.087c-.581-.028-.677.538-.738.884-.287.534-1.312-.011-1.641.067-.359.091-.673.845-.714,1.156.002.276.332.561.351.88-.015.352-.744.57-.68.802.016.196.449.297.289.337-.267.062-1.194-.112-1.369.316-.09.183.055.434-.056.581-.1.142.025.243.037.341-.057.794,1.722.533,2.459.656.85.034,1.833.274,2.153-.703.427-.9.523-2.277,1.422-2.764.87-.375.986-1.708.02-2.045-.54-.252-.685-.638-1.393-.521l-.139.011Z"/>
            <path class="cls-8" d="M181.728,227.141l-1.252.919c-.139.079-.042.193.031.627.093.41.144.783.264,1.134.052-.005.908-.873.952-.952.05-.124.009-1.249.022-1.72l-.017-.01Z"/>
            <path class="cls-8" d="M181.083,230.317c-.218.024-1.145.255-1.371.313-.267.07-.172.209-.207.654.019.609-.176,2.948-.038,3.058.087.042,1.282-.233,1.626-.308.279.083.613-2.084.629-2.27-.037-.224-.387-1.01-.566-1.41l-.074-.037Z"/>
            <path class="cls-8" d="M189.925,236.778c-.894.006-2.785.074-3.822.097-.554.049-.935-.058-.929.118.019.193.154.707.27.795.687.414,1.886,1.02,2.642,1.442.527.255.717.472.784.291.285-.699.797-2.013,1.063-2.712l-.009-.03Z"/>
            <path class="cls-8" d="M202.098,241.708c.023.07-.054.586.053.683.396.215,1.241.272,1.972.293.903-.087,2.122.226,2.247-.703,0-.073-.498.26-.695.355-.187.112-.177.046-.503-.008-.593-.126-2.462-.524-3.061-.652l-.013.032Z"/>
          </g>
          <path id="Asia-Africa" class="cls-7" d="M206.934,110.897c-1.231-.069-2.265.802-1.21,1.586,1.703,1.303,2.825,2.341,4.894,4.085,2.862,2.265,6.803,1.964,9.002,5.083,1.622,1.825,2.65,4.363,3.734,6.465.157.671.349,1.372.825,1.916,1.103,1.367,4.088,2.606,4.587,4.643.162.62-.021.948-.407,1.375-1.191,1.001-1.326,1.962-.997,3.799.306,1.197.112,2.364-.11,3.533-.079.863.477,2.04.363,2.297-1.619-.278-3.937-4.257-6.495-.729-.817,1.277.41,2.51.791,3.724.348,1.089.181,2.94.928,4.252.847,3.195,2.55,5.219,5.921,6.142.49.176,1.301.778.677.674-1.053-.356-3.273-.976-3.73.489-.084.49-.17.771-.412.839-.421.11-1.068.318-.702.904,1.062,1.732,3.717,2.348,5.62,2.703.74.071.663.088.421.43-.228.24-.452.688-.369,1.533-.084.594.819,3.925-.481,2.223-1.224-1.919-2.735-3.783-4.712-5.059-1.367-.846-2.638-1.825-3.014-.534-.113,2.126,2.861,3.968,4.086,5.582,1.336,1.846.511,6.556,1.321,9.179,1.261,3.516,3.439,6.82,4.501,10.392,1.232,1.849.982,6.125,3.061,6.575,1.452.258,2.811.796,3.966,1.791,5.63,3.403,1.439,3.429-2.798,5.174-4.026,1.621-3.678,5.372-.847,7.967,1.034,1.172,2.093,2.044,2.233,2.95.275.931-.298,1.863-.572,2.71-.442,1.684,2.629,3.549,3.75,3.962.739.187,1.32.336,1.514.563.288.554.279,1.422.311,2.06-.04.815,1.16,1.232,1.764,2.708,1.141,2.57-1.475,4.681-3.999,3.723-2.538-.971-1.761-4.533-4.918-4.805-3.886-.558-7.995-.824-11.94-.821-.475.057-.468.139-.059.427,1.596.882,3.299,3.252.997,4.457-2.321,1.309-5.832.022-8.341.782-2.513.482-4.613,2.083-6.822,3.152-1.239.697-2.851,1.368-3.152,2.811-.051,1.87,1.004,3.822,2.876,4.508,1.572.244,3.588.042,5.264-.126,1.846-.073,5.118-1.948,6.237.128.714,2.014-.162,6.311-2.09,7.698-3.262,1.963-7.713,2.382-11.492,2.099-3.016-.207-6.243-2.239-8.975-.795-2.753,2.034-4.8,3.204-8.034.982-2.33-1.451-4.848-2.448-7.201-3.891-3.068-2.129.976-6.283-3.64-7.127-3.456-.485-7.133-1.201-10.673-1.208-2.889.016-4.935.829-7.752-.34-2.228-1.114-4.278-1.349-6.638-.061-2.956,1.216-4.804,3.862-7.326,5.631-1.771,1.052-4.187,1.273-6.032,2.353-2.618,1.614-5.647,3.319-6.377,6.069-.671,4.166-.9,6.757,2.758,9.59-2.817-2.218-5.533-3.062-4.973,1.897-.115.417-.057.831.199,1.218,1.672,2.492,3.056,5.067,4.275,8.031,1.943,3.149,5.035,6.533,8.234,8.367,5.147,2.077,10.361,4.091,16.014,4.167,3.786-.045,6.291,1.619,9.056,3.737,2.191,1.072,6.576.64,6.408,4.364.119.924-.355,1.713-.536,2.47-.216,1.049,1.02,2.483,1.971,3.239,2.007,1.683,3.609,2.932,4.677,4.67,3.808,5.697-6.599,6.408,7.45,12.131,6.482,1.497,13.787.488,20.217-.085,5.767-.559,11.118-2.732,15.425-6.499,2.909-1.794,8.734-3.037,8.21-6.845-.315-1.137-1.02-1.78-1.159-2.969-.337-2.692,3.044-5.916,5.241-7.864,2.813-2.767,6.55-5.897,9.213-9.106,2.257-3.109,4.709-7.583,5.292-11.152-.722-2.337-6.731,2.955-8.373,3.307-3.832,1.728-4.399.774-7.313-1.259-6.141-1.736-8.51-6.287-11.855-11.06-2.066-2.305-4.064-5.363-6.11-8.044-.483-.683-.609-.897-.4-.894.463-.023,1.091-.038,1.586-.039,1.027.115,1.32-.437,2.487.98,3.953,4.133,8.012,8.459,12.521,12.23,2.588,2.256,3.774,8.275,8.061,5.094,4.458-2.914,8.503-6.666,11.947-10.679,2.631-2.83,4.846-5.923,5.824-9.665,1.053-3.212-.399-4.413-3.494-5.4-4.103-1.81-3.682,5.742-9.218,3.907-1.592-.535-3.143-1.485-4.375-2.783-1.067-1.008-1.775-1.819-1.312-2.76,1.952-1.799,4.858.812,7.497.741,2.074-.077,3.97-1.041,5.956-1.511,1.796-.564,3.985-.598,5.93-1.815,2.166-1.17,3.898-3.223,5.95-4.492,2.138-1.112,3.133-1.296,3.08-3.404.093.226.246.549.378.808.392,1.009,1.246,1.704,2.357,1.657.718.276,2.103,1.272,3.013.217.469-.381.939-.997,1.29-1.433.224-.286.39-.367.614-.093,2.028,3.678,4.7,7.934,8.768,9.781,5.289.789,1.602-11.116,2.67-14.253,1.118-4.496,1.671-11.86,2.098-15.693.26-1.285.724-2.5,1.022-3.74.572-1.517,2.78-1.807,3.978-1.091.947.668,1.901,2.563,2.26,1.692.459-.862.028-2.665,1.032-3.099,1.354.295,2.081,2.277,2.605,3.38.648,1.547.757,3.321,2.327,3.868.923-.14,1.04-1.483.553-2.313-.302-.54-.911-.624-1.358-.986-1.085-.811-1.407-3.803-1.293-5.191.121-1.099.567-1.644,1.04-2.129.765-.547,1.28-1.03,1.001-1.966-.368-1.824-1.37-3.944-1.854-5.722-.067-.251,1.116,2.823,1.474,2.869.119.001.146-.119.188-.256.067-.26.097-.724.093-1.328-.021-1.53-.28-3.477-1.063-4.794-1.229-1.726-3.525-2.307-3.959-4.759-.741-2.462-.11-4.318-.417-6.672-1.122-7.091-2.738-14.181-7.022-20.205-.674-.873-1.185-2.5-2.308-2.541-.271.039-.935-.433-1.339-.795-.792-.535-1.547-.429-2.498-1.052-1.041-.405-1.995-1.712-2.716-2.683-.301-.355-.498-.703-.815-.563-.292.211-.172,2.339-.811,2.028-1.008-.524-1.703-1.78-2.233-2.783-.16-.353-.281-.603-.376-.924-.352-1.007.743-.212.698-.776-.143-.504-.489-1.55-.634-2.146-.425-1.634.853-1.133,1.479-1.352.189-.042.362-.077.577-.039.216.045.474.139.687.229,2.313,1.043-.311-2.37-1.199-2.677-5.304-1.976-8.385-6.101-12.127-10.429-3.486-3.284-7.996-6.028-12.371-6.986-1.283-.204-2.244-.42-2.907.248-.544.677.387,1.898.342,2.493-.616.826-2.806-.446-3.979-1.014-3.977-1.927-7.804-4.302-10.478-7.748-1.895-3.013-6.002-2.515-8.889-3.76-1.063-.659-.487-1.208-1.735-1.59-3.587-1.007-.064-.76,1.327-.655,3.777.351,7.644,2.009,11.217.61.708-.332,1.251-.803.503-1.386-2.165-.98-5.019-1.46-7.314-1.464-1.803.051-3.229.957-5.031.738-3.031-.367-5.478-2.023-8.631-2.304-1.822-.249-4.288-.889-5.908-.076-.377.305-.116.876-.492,1.148-.488.347-3.021.137-4.561-.551-.961-.375-1.84-1.097-2.864-1.19l-.096-.008Z"/>
        </g>
      </g>
      <path class="cls-9" d="M306.323,205.431c.22,35.96-18.44,71.18-48.44,91.02-29.94,20.64-70.4,24.54-103.74,10.27-.18-.07-.36-.14-.54-.22-.58-.26-1.16-.51-1.74-.78-.71-.32-1.41-.65-2.11-1-.56-.27-1.12-.55-1.68-.83-3.16-1.5-6.24-3.17-9.21-4.99-.43-.25-.86-.51-1.28-.78-.61-.39-1.22-.78-1.82-1.18-.99-.65-1.96-1.32-2.92-2-16.06-11.38-28.84-27.27-36.82-45.27-1.46-3.28-2.75-6.63-3.88-10.03-.53-1.58-1.01-3.17-1.46-4.78-.93-3.28-1.69-6.61-2.29-9.97-.06-.35-.12-.7-.18-1.05-.74-4.4-1.2-8.85-1.36-13.32-.01-.35-.02-.71-.03-1.06-.03-.63-.06-1.26-.07-1.89-.18-5.68.13-11.35.9-16.95,4.42-32.41,23.94-62.63,52.24-79.26,33.09-20.35,77.08-20.99,110.67-1.46,34.01,18.69,56.1,56.74,55.76,95.53Z"/>
    </g>
    <g id="Anelli">
      <g class="cls-16">
        <g>
          <g>
            <path class="cls-14" d="M344.292,225.592c0,29.78-23.65,55.74-47.01,70.68-29.5,18.79-66.25,28.73-105.22,28.73-7.04,0-14.15-.32-21.31-.98-26.11-2.88-72.91-13.13-93.15-49.38-3.58-6.66-5.58-13.84-6.04-21.17,1.14,4.05,2.82,7.78,4.92,11.19v.01c.38,1.23.81,2.45,1.31,3.66.26.68.55,1.36.86,2.04.44.97.92,1.94,1.44,2.9,1.23,2.2,2.55,4.29,3.97,6.3.66.93,1.34,1.84,2.05,2.73.08.11.17.23.27.34.7.9,1.44,1.78,2.19,2.64.4.46.8.92,1.22,1.37.81.88,1.63,1.74,2.49,2.58,1.69,1.69,3.47,3.3,5.31,4.82,0,0,0,.01.01.01.91.76,1.84,1.49,2.78,2.21.67.51,1.35,1.02,2.04,1.5.76.55,1.52,1.09,2.3,1.61,21.61,14.56,48.75,19.88,66.32,21.82,1.14.1,2.28.2,3.41.29,1.25.09,2.49.18,3.73.25.46.03.93.06,1.39.08,1.48.09,2.96.15,4.44.2,6.33.23,12.62.19,18.83-.11,29.65-1.42,57.68-8.76,81.7-21.5,1.92-1.02,3.81-2.08,5.68-3.16,1.87-1.09,3.72-2.21,5.53-3.37,24.35-15.57,49.04-43.34,45.34-74.56v-.01c-.1-.83-.21-1.67-.36-2.5.53-2.67.84-5.33.93-7.94,1.1,3.32,1.85,6.7,2.24,10.11.26,2.22.39,4.42.39,6.61Z"/>
            <path class="cls-10" d="M295.752,293.882c-1.81,1.16-3.66,2.28-5.53,3.37-1.87,1.08-3.76,2.14-5.68,3.16-24.02,12.74-52.05,20.08-81.7,21.5-6.21.3-12.5.34-18.83.11-1.48-.05-2.96-.12-4.44-.2-.46-.02-.93-.05-1.39-.08-1.25-.07-2.49-.16-3.73-.25-1.13-.09-2.27-.19-3.41-.29-17.57-1.94-44.71-7.26-66.32-21.82-.77-.52-1.54-1.06-2.3-1.61-.69-.48-1.37-.99-2.04-1.5-.94-.72-1.87-1.46-2.78-2.21-.01,0-.01-.01-.01-.01-1.83-1.52-3.61-3.13-5.31-4.82-.85-.83-1.67-1.69-2.49-2.58-.42-.45-.82-.91-1.22-1.37-.75-.86-1.48-1.74-2.19-2.64-.1-.11-.19-.23-.27-.34-.7-.89-1.38-1.8-2.05-2.73-1.42-2.01-2.74-4.1-3.97-6.3-.52-.96-1-1.93-1.44-2.9-.31-.67-.6-1.35-.86-2.04-.5-1.21-.93-2.43-1.31-3.66,12.78,20.78,40.86,30.17,54.4,33.61,15.59,3.84,31.91,5.75,48.65,5.75,24.65,0,50.21-4.14,75.72-12.36,31.56-10.54,56.61-26.92,72.45-47.38,6.75-8.68,11.2-18.17,13.03-27.48.15.83.26,1.67.36,2.5v.01c3.7,31.22-20.99,58.99-45.34,74.56Z"/>
          </g>
          <g>
            <path class="cls-14" d="M341.662,208.872c-.09,2.61-.4,5.27-.93,7.94-1.83,9.31-6.28,18.8-13.03,27.48-15.84,20.46-40.89,36.84-72.45,47.38-25.51,8.22-51.07,12.36-75.72,12.36-16.74,0-33.06-1.91-48.65-5.75-13.54-3.44-41.62-12.83-54.4-33.61v-.01c-2.1-3.41-3.78-7.14-4.92-11.19-.63-2.25-1.1-4.61-1.37-7.07-.07-.81-.12-1.61-.14-2.41.95,3.75,2.57,7.33,4.83,10.64q0,.01.01.02c.12.36.24.71.37,1.06.11.27.21.55.32.82.19.51.4,1.02.63,1.51.14.33.29.65.43.97.64,1.35,1.34,2.65,2.11,3.91.15.26.31.51.47.76.37.6.76,1.19,1.17,1.76.4.58.82,1.15,1.25,1.71.42.56.86,1.11,1.32,1.65.52.62,1.06,1.23,1.62,1.83.39.44.8.87,1.22,1.29.42.43.86.86,1.3,1.27.1.11.21.21.32.31.44.42.89.83,1.35,1.24.34.3.69.6,1.03.89.54.46,1.09.91,1.64,1.35.78.62,1.57,1.22,2.37,1.8.4.29.8.58,1.21.86,2.29,1.6,4.66,3.07,7.06,4.41.35.2.7.4,1.06.59,1.07.59,2.15,1.15,3.23,1.68.32.17.65.33.98.48,1.75.86,3.5,1.64,5.23,2.37.39.17.77.33,1.15.48.38.16.76.32,1.13.46.38.15.75.3,1.13.45.71.28,1.41.54,2.1.79,1.45.54,2.87,1.03,4.24,1.48.38.13.75.25,1.12.37.68.22,1.36.43,2.01.62.32.1.64.2.95.29,1.1.33,2.16.62,3.15.89.02.01.04.01.06.02.02,0,.04.01.05.01.66.18,1.3.35,1.9.5,3.84.95,7.73,1.77,11.65,2.48,26.19,4.73,54.19,4.18,82.59-1.57,1.68-.33,3.36-.68,5.04-1.06,1.13-.25,2.26-.51,3.4-.78,3.57-.84,7.14-1.77,10.71-2.78,1.56-.44,3.12-.89,4.68-1.37.01,0,.01-.01.02,0,1.56-.48,3.13-.97,4.69-1.47q.01-.01.02-.01c2.02-.67,4-1.37,5.96-2.09.7-.25,1.39-.51,2.08-.78.62-.23,1.23-.46,1.83-.71.69-.26,1.37-.53,2.04-.81.8-.31,1.59-.64,2.37-.97.82-.34,1.64-.69,2.45-1.05.7-.3,1.39-.61,2.08-.92.1-.04.2-.09.3-.14.97-.43,1.94-.88,2.89-1.33.67-.32,1.35-.64,2.01-.97.45-.22.9-.44,1.35-.67.58-.29,1.16-.58,1.73-.88.84-.42,1.67-.86,2.49-1.3.95-.51,1.88-1.02,2.81-1.54.68-.38,1.36-.77,2.03-1.16.79-.45,1.57-.92,2.35-1.39h.01c.77-.47,1.54-.94,2.3-1.42.7-.43,1.38-.87,2.06-1.32,1.99-1.29,3.92-2.61,5.8-3.97.49-.35.98-.71,1.46-1.07,4.04-3,7.82-6.16,11.32-9.46.38-.35.75-.71,1.12-1.07.65-.62,1.28-1.24,1.89-1.87.43-.44.86-.88,1.28-1.32.4-.42.8-.84,1.19-1.27.85-.91,1.68-1.84,2.48-2.78.33-.38.66-.76.98-1.15.14-.16.28-.33.41-.49.31-.37.61-.74.91-1.12.38-.46.75-.93,1.11-1.4,1.63-2.09,3.12-4.24,4.46-6.41.23-.36.45-.73.66-1.09.22-.37.44-.73.64-1.1.21-.37.42-.73.61-1.1.22-.4.43-.79.63-1.19.18-.34.36-.68.52-1.02.37-.74.72-1.48,1.05-2.22.17-.38.34-.75.49-1.12.16-.37.32-.74.46-1.11.16-.39.31-.78.46-1.17.24-.62.46-1.24.67-1.86.14-.44.29-.88.42-1.31.11-.35.22-.71.32-1.06.64-2.18,1.13-4.37,1.46-6.53.04-.28.08-.56.12-.84.05-.35.09-.7.13-1.04.04-.35.08-.7.11-1.04.05-.62.1-1.24.13-1.85,0-.07.01-.15.01-.22.11-2.3.03-4.57-.24-6.79-.04-.37-.09-.74-.15-1.1l-.06-.42c-.01-.08-.03-.17-.04-.25-.14-.81-.29-1.61-.48-2.41-.09-.4-.19-.8-.29-1.2-.02-.07-.04-.15-.06-.22.46-1.99.78-4.01.94-6.06,1.25,3.04,2.15,6.19,2.69,9.43.47,2.8.64,5.68.54,8.62Z"/>
            <path class="cls-13" d="M338.812,209.272c0,.07-.01.15-.01.22-.03.61-.08,1.23-.13,1.85-.03.34-.07.69-.11,1.04-.04.34-.08.69-.13,1.04-.04.28-.08.56-.12.84-.33,2.16-.82,4.35-1.46,6.53-.1.35-.21.71-.32,1.06-.13.43-.28.87-.42,1.31-.22.62-.44,1.24-.67,1.86-.15.39-.3.78-.46,1.17-.15.37-.3.74-.46,1.11-.16.38-.32.75-.49,1.12-.33.74-.68,1.48-1.05,2.22-.17.34-.34.68-.52,1.02-.2.4-.41.79-.63,1.19-.2.37-.4.74-.61,1.1-.21.37-.42.73-.64,1.1-.21.36-.43.72-.66,1.09-1.34,2.17-2.83,4.32-4.46,6.41-.36.47-.73.94-1.11,1.4-.3.38-.6.75-.91,1.12-.13.16-.27.33-.41.49-.32.39-.65.77-.98,1.15-.8.94-1.63,1.87-2.48,2.78-.39.43-.79.85-1.19,1.27-.42.44-.85.88-1.28,1.32-.61.63-1.24,1.25-1.89,1.87-.37.37-.74.72-1.12,1.07-3.5,3.3-7.28,6.46-11.32,9.46-.48.36-.97.72-1.46,1.07-1.88,1.36-3.81,2.68-5.8,3.97-.68.45-1.36.89-2.06,1.32-.75.48-1.52.95-2.3,1.42h-.01c-.77.47-1.56.93-2.35,1.39-.67.39-1.35.78-2.03,1.16-.93.52-1.86,1.03-2.81,1.54-.82.44-1.65.88-2.49,1.3-.57.3-1.15.59-1.73.88-.45.23-.9.45-1.35.67-.66.33-1.34.65-2.01.97-.95.45-1.92.9-2.89,1.33-.1.05-.2.1-.3.14-.69.31-1.38.62-2.08.92-.81.36-1.63.71-2.45,1.05-.78.33-1.57.66-2.37.97-.67.28-1.35.55-2.04.81-.6.25-1.21.48-1.83.71-.69.27-1.38.53-2.08.78-1.96.72-3.94,1.42-5.96,2.09q-.01,0-.02.01c-1.56.5-3.13.99-4.69,1.47-.01-.01-.01,0-.02,0-1.56.48-3.12.93-4.68,1.37-3.57,1.01-7.14,1.94-10.71,2.78-1.14.27-2.27.53-3.4.78-1.68.38-3.36.73-5.04,1.06-15.57,3.12-31.12,4.7-46.47,4.7-12.38,0-24.48-1.05-36.12-3.13-3.92-.71-7.81-1.53-11.65-2.48-.6-.15-1.24-.32-1.9-.5-.01,0-.03-.01-.05-.01-.02-.01-.04-.01-.06-.02-.99-.27-2.05-.56-3.15-.89-.31-.09-.63-.19-.95-.29-.65-.19-1.33-.4-2.01-.62-.37-.12-.74-.24-1.12-.37-1.37-.45-2.79-.94-4.24-1.48-.69-.25-1.39-.52-2.1-.79-.38-.15-.75-.3-1.13-.45-.37-.15-.75-.3-1.13-.46-.38-.15-.77-.31-1.15-.48-1.73-.73-3.48-1.51-5.23-2.37-.33-.15-.66-.31-.98-.48-1.08-.53-2.16-1.09-3.23-1.68-.36-.19-.71-.39-1.06-.59-2.4-1.34-4.77-2.81-7.06-4.41-.41-.28-.81-.57-1.21-.86-.8-.58-1.59-1.18-2.37-1.8-.55-.44-1.1-.89-1.64-1.35-.34-.29-.69-.59-1.03-.89-.46-.41-.91-.82-1.35-1.24-.11-.1-.22-.2-.32-.31-.44-.41-.88-.84-1.3-1.27-.42-.42-.83-.85-1.22-1.29-.56-.6-1.1-1.21-1.62-1.83-.46-.54-.9-1.09-1.32-1.65-.43-.56-.85-1.13-1.25-1.71-.41-.57-.8-1.16-1.17-1.76-.16-.25-.32-.5-.47-.76-.77-1.26-1.47-2.56-2.11-3.91-.14-.32-.29-.64-.43-.97-.23-.49-.44-1-.63-1.51-.11-.27-.21-.55-.32-.82-.13-.35-.25-.7-.37-1.06.68,1,1.42,1.97,2.22,2.92,7.77,9.2,20.27,16.25,37.16,20.95,14.29,3.86,30.84,5.8,48.4,5.8,17.07,0,35.11-1.83,52.97-5.48,37.49-7.66,70.72-22.35,93.57-41.35,8.09-6.74,24.02-22.01,28.28-40.61.02.07.04.15.06.22.1.4.2.8.29,1.2.19.8.34,1.6.48,2.41.01.08.03.17.04.25l.06.42c.06.36.11.73.15,1.1.27,2.22.35,4.49.24,6.79Z"/>
          </g>
          <g>
            <path class="cls-14" d="M338.432,190.822c-.16,2.05-.48,4.07-.94,6.06-4.26,18.6-20.19,33.87-28.28,40.61-22.85,19-56.08,33.69-93.57,41.35-17.86,3.65-35.9,5.48-52.97,5.48-17.56,0-34.11-1.94-48.4-5.8-16.89-4.7-29.39-11.75-37.16-20.95-.8-.95-1.54-1.92-2.22-2.92q-.01-.01-.01-.02c-2.26-3.31-3.88-6.89-4.83-10.64-1.92-7.48-1.2-15.58,2.27-23.31,8.6-18.72,28.31-35.29,60.27-50.67.67-.31,1.34-.62,2.02-.92-24.84,12.43-53.51,30.83-62.43,53.08-1.96,4.92-2.47,9.77-1.71,14.3.41,2.43,1.19,4.77,2.31,6.98h.01c.02.09.04.18.06.27.01.03.02.06.03.09,0,.01,0,.03.01.04v.01c.23.81.48,1.61.78,2.4.14.39.3.77.46,1.15.04.12.09.24.15.35.14.33.29.66.45.98.19.41.39.82.61,1.22.2.39.41.77.64,1.15.27.47.56.93.87,1.39.21.33.43.65.67.97.28.41.58.81.9,1.21.27.36.56.71.85,1.06.2.24.4.47.61.7.27.31.55.62.84.92.24.26.49.53.76.79.25.26.52.53.79.78.26.26.53.52.8.76.06.05.11.1.15.14.48.44.98.87,1.48,1.3.33.27.66.54.99.8.3.25.61.49.92.72.48.37.96.73,1.46,1.08.79.56,1.6,1.11,2.44,1.64,1.5.96,3.07,1.88,4.73,2.76.67.35,1.34.7,2.03,1.04.01,0,.01.01.01.01.69.33,1.39.66,2.1.99,2.86,1.31,5.93,2.52,9.2,3.63.02.02.05.03.08.03,1.09.37,2.2.73,3.34,1.08.99.3,1.99.6,3.01.88h.01c1.83.49,3.69.96,5.57,1.39,2.68.6,5.4,1.14,8.17,1.62.25.04.49.08.73.12,1.74.29,3.49.56,5.25.8,1.89.26,3.82.48,5.76.68.9.09,1.81.17,2.72.26,1.03.09,2.07.17,3.11.25,1.11.08,2.22.16,3.33.23.68.03,1.36.06,2.04.09,50.11,2.38,108.74-12.64,146.41-38.86.58-.41,1.16-.82,1.74-1.23.53-.38,1.06-.77,1.59-1.16.41-.3.81-.6,1.21-.91.43-.32.85-.64,1.26-.96l.96-.75c.02-.02.04-.03.06-.06.41-.31.81-.63,1.21-.96.42-.34.84-.68,1.26-1.03.71-.59,1.47-1.24,2.29-1.97.16-.14.33-.29.5-.44,2.34-2.08,5.04-4.66,7.78-7.65.37-.39.73-.8,1.1-1.21.42-.48.85-.96,1.26-1.45.2-.23.39-.46.59-.69.65-.77,1.29-1.57,1.93-2.38.32-.41.65-.83.97-1.26.03-.05.07-.1.11-.15.34-.46.68-.92,1.02-1.39.6-.83,1.19-1.68,1.76-2.55.14-.21.28-.42.41-.63,1.05-1.63,2.05-3.32,2.96-5.06.14-.25.27-.51.41-.77.31-.62.61-1.24.9-1.87.14-.3.28-.6.41-.9.12-.27.24-.54.36-.82.26-.63.52-1.27.76-1.92.12-.3.23-.61.34-.92,0,0,0-.01.01-.01.1-.31.21-.62.31-.93.21-.62.4-1.25.58-1.88.09-.32.18-.64.26-.96.08-.32.16-.63.24-.95.07-.32.15-.65.21-.97.05-.2.09-.4.12-.59.06-.31.12-.62.17-.92.06-.31.11-.62.15-.93.03-.19.06-.38.08-.58.04-.25.07-.5.09-.76.02-.17.04-.35.06-.52.03-.3.06-.6.08-.89.04-.51.06-1.02.08-1.53.01-.4.02-.79.02-1.19,0-.39-.01-.79-.02-1.18,0-.06,0-.12-.01-.17-.01-.36-.03-.72-.06-1.08v-.07c-.08-1.18-.22-2.36-.43-3.56-.04-.23-.08-.46-.13-.69-.06-.35-.14-.7-.22-1.05-.43-1.9-1.05-3.76-1.86-5.58.29-1.71.46-3.44.48-5.17,1.95,3.21,3.36,6.61,4.15,10.13.89,3.93,1.12,7.8.81,11.57Z"/>
            <path class="cls-15" d="M335.722,187.672c0,.4-.01.79-.02,1.19-.02.51-.04,1.02-.08,1.53-.02.29-.05.59-.08.89-.02.17-.04.35-.06.52-.02.25-.05.51-.09.76-.02.2-.05.39-.08.58-.04.31-.09.62-.15.93-.05.3-.11.61-.17.92-.03.19-.07.39-.12.59-.06.32-.14.64-.21.97-.08.32-.16.63-.24.95-.08.32-.17.64-.26.96-.18.63-.37,1.26-.58,1.88-.1.31-.21.62-.31.93-.01,0-.01.01-.01.01-.11.31-.22.62-.34.92-.24.65-.5,1.29-.76,1.92-.12.27-.24.55-.36.82-.13.3-.27.6-.41.9-.29.63-.59,1.25-.9,1.87-.14.26-.27.52-.41.77-.91,1.74-1.91,3.43-2.96,5.06-.14.21-.27.42-.41.63-.57.87-1.16,1.72-1.76,2.55-.34.47-.68.93-1.02,1.39-.04.05-.08.1-.11.15-.32.43-.65.85-.97,1.26-.64.81-1.28,1.61-1.93,2.38-.19.23-.39.46-.59.69-.41.49-.84.97-1.26,1.45-.36.41-.73.81-1.1,1.21-2.74,2.99-5.44,5.57-7.78,7.65-.17.15-.33.3-.5.44-.82.73-1.58,1.38-2.29,1.97-.42.35-.84.69-1.26,1.03-.4.33-.8.65-1.21.96-.02.03-.04.04-.06.06l-.96.75c-.41.32-.83.65-1.26.96-.4.31-.8.61-1.21.91-.53.39-1.06.78-1.59,1.16-.58.41-1.16.82-1.74,1.23-42.01,29.25-110.12,44.57-163.37,37.35-1.76-.24-3.51-.51-5.25-.8-.24-.04-.48-.08-.73-.12-2.77-.48-5.49-1.02-8.17-1.62-1.88-.43-3.74-.9-5.57-1.39h-.01c-1.02-.29-2.02-.58-3.01-.88-1.14-.35-2.25-.71-3.34-1.08-.03,0-.06-.01-.08-.03-3.27-1.11-6.34-2.32-9.2-3.63-.71-.33-1.41-.66-2.1-.99,0,0,0-.01-.01-.01-.69-.34-1.36-.69-2.03-1.04-1.66-.88-3.23-1.8-4.73-2.76-.84-.53-1.65-1.08-2.44-1.64-.5-.35-.98-.71-1.46-1.08-.31-.24-.62-.48-.92-.72-.33-.26-.66-.53-.99-.8-.5-.43-1-.87-1.48-1.3-.04-.04-.09-.09-.15-.14-.27-.25-.54-.5-.8-.76-.27-.26-.53-.52-.79-.78-.26-.26-.51-.53-.76-.79-.29-.3-.57-.61-.84-.92-.2-.23-.4-.47-.6-.7-.3-.35-.58-.7-.86-1.06-.32-.4-.62-.8-.9-1.21-.23-.32-.45-.64-.67-.97-.31-.46-.6-.92-.87-1.39-.22-.38-.43-.76-.64-1.15-.21-.4-.42-.81-.61-1.22-.16-.32-.31-.65-.45-.98-.06-.11-.11-.23-.15-.35-.16-.38-.31-.76-.46-1.15-.3-.79-.55-1.59-.78-2.4v-.01c-.01-.01-.01-.03-.01-.04-.01-.03-.02-.06-.03-.09-.02-.09-.04-.18-.06-.27,2.02,3.98,5.16,7.53,9.27,10.45,15.32,10.68,36.21,13.13,55.85,13.7,1.28.02,2.57.03,3.85.03,2.46,0,4.92-.04,7.39-.11,18.93-.27,38.68-3.38,57.08-7.96.06-.01.12-.02.18-.04,3.04-.72,6.08-1.49,9.1-2.3,25.61-7.06,50.76-16.8,73.15-30.86,18.69-11.75,40.8-31.24,44.33-52.07.81,1.82,1.43,3.68,1.86,5.58.08.35.16.7.22,1.05.05.23.09.46.13.69.21,1.2.35,2.38.43,3.56v.07c.03.36.05.72.06,1.08.01.05.01.11.01.17.01.39.02.79.02,1.18Z"/>
          </g>
          <g>
            <path class="cls-6" d="M141.764,266.219c-1.278,0-2.554-.011-3.831-.032-17.37-.506-39.345-2.491-55.062-13.449-10.402-7.377-13.909-18.61-9.372-30.044,10.026-25.026,46.059-45.57,74.521-58.397,32.105-13.916,79.543-30.515,123.102-30.515,9.655,0,18.753.846,27.04,2.514,16.92,3.542,28.804,12.12,32.594,23.534,7.274,23.736-17.362,49.319-42.848,65.337-20.31,12.751-44.113,22.791-72.773,30.693-25.736,6.873-50.426,10.359-73.37,10.359ZM252.162,143.993c-9.384,0-19.471.668-30.835,2.043-31.515,4.093-62.448,13.729-89.471,27.871-28.896,15.675-46.211,31.172-52.956,47.388-4.272,10.736-.863,20.578,9.109,26.348,9.691,5.337,22.775,8.036,38.915,8.036,13.846,0,29.586-1.895,48.118-5.793,23.914-5.351,47.198-13.25,69.222-23.481,7.426-3.477,72.394-34.711,68.24-60.876l-.012-.077-.021-.076c-2.43-8.831-11.586-13.074-20.223-16.06-11.823-3.587-24.919-5.322-40.087-5.322Z"/>
            <path class="cls-14" d="M332.102,159.382c-4.52-13.59-18.84-21.37-33.66-24.48-8.71-1.75-17.88-2.54-27.32-2.54-41.39,0-87.97,15.16-123.69,30.64-4.06,1.83-8.38,3.87-12.82,6.09-24.84,12.43-53.51,30.83-62.43,53.08-3.01,7.57-2.61,14.96.6,21.28h.01c2.02,3.98,5.16,7.53,9.27,10.45,15.32,10.68,36.21,13.13,55.85,13.7,1.28.02,2.57.03,3.85.03,2.46,0,4.92-.04,7.39-.11.63-.03,1.26-.05,1.88-.07.05,0,.1-.01.15-.01,18.07-.71,36.14-3.44,53.92-7.61.13-.03.25-.06.37-.09.26-.06.51-.12.76-.18.06-.01.12-.02.18-.04,3.04-.72,6.08-1.49,9.1-2.3,25.61-7.06,50.76-16.8,73.15-30.86,18.69-11.75,40.8-31.24,44.33-52.07.29-1.71.46-3.44.48-5.17.06-3.24-.37-6.49-1.37-9.74ZM310.942,171.212v.03c-.21,1.06-.53,2.13-.95,3.21-7.73,20.26-48.45,42.3-66.32,50.67-21.97,10.2-45.23,18.08-68.92,23.38-14.22,2.99-31.43,5.76-47.83,5.76-14.16,0-27.71-2.07-38.2-7.85-2.17-1.26-4.01-2.72-5.5-4.35-3-3.29-4.6-7.26-4.68-11.59-.01-.02-.01-.03,0-.05-.01-.03-.01-.05-.01-.08-.04-2.72.52-5.58,1.68-8.5,4.09-9.85,11.89-18.62,21.15-26.3.18-.16.36-.3.54-.45.55-.45,1.11-.9,1.67-1.34.18-.15.37-.3.56-.44,8.96-7.03,19.05-13.09,28.38-18.15,27.57-14.43,58.17-23.72,88.98-27.72,10.16-1.23,20.48-2.03,30.67-2.03,13.65,0,27.09,1.44,39.62,5.24,8.65,2.99,17.09,6.97,19.32,15.1.28,1.79.22,3.62-.16,5.46ZM307.362,208.782c-6.23,5.63-13.19,10.77-20.21,15.18-20.19,12.68-43.87,22.67-72.37,30.53-2.84.76-5.67,1.47-8.48,2.15-20.1,4.82-39.48,7.53-57.81,8.06-2.26.07-4.5.1-6.73.1-1.27,0-2.54-.01-3.77-.03-12.53-.36-27.47-1.5-40.61-6.26h-.01c-4.87-1.75-9.5-4.01-13.67-6.92-9.84-6.98-13.17-17.59-8.89-28.37,3.32-8.28,9.58-16.08,17.49-23.27-6.9,6.84-11.78,13.76-14.73,20.84-3.38,8.5-2.09,16.71,3.26,22.83v.01h.01c1.73,1.99,3.89,3.76,6.46,5.24l.02.01.03.02c.66.37,1.35.72,2.04,1.06,9.64,4.74,22.25,7.13,37.53,7.13,13.95,0,29.78-1.9,48.45-5.83,23.99-5.37,47.37-13.3,69.5-23.58,10.49-4.91,56.55-27.53,67.08-50.63.49-1.07.9-2.13,1.23-3.19,0-.01.01-.03.01-.04.88-2.86,1.16-5.71.71-8.52l-.02-.15-.04-.15c-2.61-9.47-12.15-13.92-21.13-17.03l-.05-.01-.05-.02c-4.38-1.33-8.95-2.41-13.73-3.24-.01,0-.02-.01-.02-.01-8.2-1.42-17.04-2.12-26.7-2.12-9.44,0-19.58.68-31.03,2.06-13.58,1.76-27.06,4.55-40.16,8.29,3.01-1.05,6.07-2.08,9.18-3.08,25.42-8.21,53.96-14.64,80.97-14.64,9.56,0,18.56.83,26.74,2.48,7.76,1.62,26.37,7.08,31.54,22.56.45,1.48.78,2.97.97,4.47.24,1.71.31,3.42.23,5.14-.6,13.57-10.34,27.29-23.24,38.93Z"/>
          </g>
        </g>
      </g>
    </g>
    <g id="Luna_stelle">
      <path class="cls-7" d="M67.848,145.759l1.229,5.639c.626,2.872,2.442,5.115,4.767,5.888l4.565,1.518c.057.019.057.118,0,.137l-4.565,1.518c-2.325.773-4.141,3.016-4.767,5.888l-1.229,5.639c-.015.07-.095.07-.111,0l-1.229-5.639c-.626-2.872-2.442-5.115-4.767-5.888l-4.565-1.518c-.057-.019-.057-.118,0-.137l4.565-1.518c2.325-.773,4.141-3.016,4.767-5.888l1.229-5.639c.015-.07.095-.07.111,0Z"/>
      <path class="cls-7" d="M92.507,115.638l.615,2.819c.313,1.436,1.221,2.557,2.384,2.944l2.283.759c.028.009.028.059,0,.068l-2.283.759c-1.162.387-2.071,1.508-2.384,2.944l-.615,2.819c-.008.035-.048.035-.055,0l-.615-2.819c-.313-1.436-1.221-2.557-2.384-2.944l-2.283-.759c-.028-.009-.028-.059,0-.068l2.283-.759c1.162-.387,2.071-1.508,2.384-2.944l.615-2.819c.008-.035.048-.035.055,0Z"/>
      <path class="cls-7" d="M63.776,181.726l.615,2.819c.313,1.436,1.221,2.557,2.384,2.944l2.283.759c.028.009.028.059,0,.068l-2.283.759c-1.162.387-2.071,1.508-2.384,2.944l-.615,2.819c-.008.035-.048.035-.055,0l-.615-2.819c-.313-1.436-1.221-2.557-2.384-2.944l-2.283-.759c-.028-.009-.028-.059,0-.068l2.283-.759c1.162-.387,2.071-1.508,2.384-2.944l.615-2.819c.008-.035.048-.035.055,0Z"/>
      <path class="cls-7" d="M218.5,72.448l.615,2.819c.313,1.436,1.221,2.557,2.384,2.944l2.283.759c.028.009.028.059,0,.068l-2.283.759c-1.162.387-2.071,1.508-2.384,2.944l-.615,2.819c-.008.035-.048.035-.055,0l-.615-2.819c-.313-1.436-1.221-2.557-2.384-2.944l-2.283-.759c-.028-.009-.028-.059,0-.068l2.283-.759c1.162-.387,2.071-1.508,2.384-2.944l.615-2.819c.008-.035.048-.035.055,0Z"/>
      <path class="cls-7" d="M149.049,82.522l.982,4.506c.5,2.295,1.952,4.087,3.81,4.705l3.648,1.213c.045.015.045.094,0,.109l-3.648,1.213c-1.858.618-3.309,2.41-3.81,4.705l-.982,4.506c-.012.056-.076.056-.088,0l-.982-4.506c-.5-2.295-1.952-4.087-3.81-4.705l-3.648-1.213c-.045-.015-.045-.094,0-.109l3.648-1.213c1.858-.618,3.309-2.41,3.81-4.705l.982-4.506c.012-.056.076-.056.088,0Z"/>
      <path class="cls-7" d="M166.628,64.214l.692,3.174c.352,1.616,1.374,2.879,2.683,3.314l2.57.854c.032.011.032.066,0,.077l-2.57.854c-1.309.435-2.331,1.698-2.683,3.314l-.692,3.174c-.009.039-.054.039-.062,0l-.692-3.174c-.352-1.616-1.374-2.879-2.683-3.314l-2.57-.854c-.032-.011-.032-.066,0-.077l2.57-.854c1.309-.435,2.331-1.698,2.683-3.314l.692-3.174c.009-.039.054-.039.062,0Z"/>
      <path class="cls-7" d="M112.535,87.347l1.016,4.663c.518,2.375,2.019,4.229,3.942,4.869l3.775,1.255c.047.016.047.097,0,.113l-3.775,1.255c-1.923.639-3.424,2.494-3.942,4.869l-1.016,4.663c-.013.058-.079.058-.091,0l-1.016-4.663c-.518-2.375-2.019-4.229-3.942-4.869l-3.775-1.255c-.047-.016-.047-.097,0-.113l3.775-1.255c1.923-.639,3.424-2.494,3.942-4.869l1.016-4.663c.013-.058.079-.058.091,0Z"/>
      <path class="cls-7" d="M197.294,49.865l1.016,4.663c.518,2.375,2.019,4.229,3.942,4.869l3.775,1.255c.047.016.047.097,0,.113l-3.775,1.255c-1.923.639-3.424,2.494-3.942,4.869l-1.016,4.663c-.013.058-.079.058-.091,0l-1.016-4.663c-.518-2.375-2.019-4.229-3.942-4.869l-3.775-1.255c-.047-.016-.047-.097,0-.113l3.775-1.255c1.923-.639,3.424-2.494,3.942-4.869l1.016-4.663c.013-.058.079-.058.091,0Z"/>
      <circle class="cls-7" cx="254.316" cy="79.004" r="18.791"/>
    </g>
    <g id="CubeSAT">
      <path class="cls-14" d="M287.657,237.621l12.166,28.311c.979,2.279.676,4.906-.796,6.903l-17.974,24.363c-1.49,2.019-3.949,3.084-6.441,2.789l-30.602-3.625c-2.463-.292-4.586-1.868-5.578-4.14l-12.329-28.24c-1.004-2.3-.697-4.962.805-6.972l18.116-24.257c1.484-1.987,3.911-3.038,6.376-2.76l30.622,3.448c2.493.281,4.644,1.877,5.634,4.182Z"/>
      <path class="cls-4" d="M294.612,272.111l-15.535,21.063c-1.41,1.911-3.737,2.919-6.095,2.64l-26.461-3.134c-2.33-.276-4.339-1.767-5.278-3.917l-10.665-24.418c-.951-2.176-.66-4.696.761-6.599l15.659-20.967c1.404-1.88,3.699-2.874,6.031-2.613l26.484,2.97c2.361.265,4.397,1.776,5.335,3.959l10.517,24.486c.926,2.156.639,4.642-.754,6.53Z"/>
      <path class="cls-1" d="M280.242,241.731l-16.065,21.643c-.635.855-1.678,1.307-2.736,1.185l-27.249-3.139c-2.285-.263-3.425-2.905-2.048-4.747l16.099-21.556c.634-.848,1.67-1.297,2.722-1.179l27.215,3.052c2.286.256,3.433,2.894,2.062,4.741Z"/>
      <path class="cls-2" d="M295.845,270.438l-15.973,21.656c-1.365,1.851-4.223,1.525-5.137-.585l-10.901-25.168c-.423-.978-.293-2.107.342-2.963l16.066-21.651c1.371-1.847,4.228-1.513,5.135.6l10.808,25.163c.418.973.289,2.095-.34,2.947Z"/>
      <g>
        <path class="cls-5" d="M263.835,266.34l10.902,25.171c.914,2.11-.804,4.418-3.088,4.147l-27.192-3.221c-1.052-.125-1.958-.797-2.382-1.768l-10.961-25.092c-.921-2.108.79-4.42,3.075-4.157l27.25,3.143c1.059.122,1.972.8,2.395,1.777Z"/>
        <path class="cls-7" d="M264.294,266.141c2.106,4.866,7.528,17.378,9.566,22.086.454,1.166,1.21,2.539,1.555,3.807.443,1.962-1.136,4.032-3.136,4.129-.737.043-2.347-.223-3.087-.293,0,0-3.983-.472-3.983-.472-3.974-.478-11.962-1.412-15.934-1.888,0,0-3.983-.472-3.983-.472-1.543-.058-3.052-.664-3.677-2.179-2.123-4.864-7.58-17.351-9.634-22.056-.457-1.174-1.23-2.531-1.558-3.815-.458-2.198,1.571-4.364,3.787-4.068,0,0,.504.056.504.056l1.992.23c5.717.653,14.185,1.64,19.925,2.298,0,0,3.985.46,3.985.46,1.544.053,3.054.661,3.68,2.177h0ZM263.376,266.539c-.509-1.211-1.674-1.519-2.876-1.581,0,0-3.985-.46-3.985-.46-5.747-.653-14.199-1.645-19.925-2.298-.552-.025-2.348-.332-2.904-.291-1.422.047-2.574,1.512-2.28,2.901.23.91,1.106,2.633,1.49,3.593,2.03,4.648,7.532,17.243,9.634,22.056.499,1.205,1.686,1.524,2.878,1.585,0,0,3.983.472,3.983.472,3.969.464,11.965,1.422,15.934,1.888,1.736.16,5.166.7,6.877.761,1.417-.064,2.553-1.557,2.231-2.937-.101-.5-.45-1.159-.695-1.763-2.474-5.712-7.833-18.083-10.363-23.926h0Z"/>
      </g>
      <path class="cls-13" d="M250.605,273.005l.5-5.881c.048-.56.866-.56.914,0l.5,5.881c.145,1.706,1.385,3.118,3.058,3.481l3.957.861c.482.105.482.792,0,.896l-3.957.861c-1.673.364-2.913,1.776-3.058,3.481l-.5,5.881c-.048.56-.866.56-.914,0l-.5-5.881c-.145-1.706-1.385-3.118-3.058-3.481l-3.957-.861c-.482-.105-.482-.792,0-.896l3.957-.861c1.673-.364,2.913-1.776,3.058-3.481Z"/>
    </g>
  </g>
</svg>